<mxfile host="app.diagrams.net" modified="2024-02-26T22:09:29.880Z" agent="Mozilla/5.0 (X11; Ubuntu; Linux x86_64; rv:123.0) Gecko/20100101 Firefox/123.0" version="23.1.6" etag="xWGPKfADnZ_wsEd8ohsY" type="github">
  <diagram name="Page-1" id="u-pviXGqedOs2vbsF0ac">
    <mxGraphModel>
      <root>
        <mxCell id="0" />
        <mxCell id="1" parent="0" />
      </root>
    </mxGraphModel>
  </diagram>
</mxfile>
